<?xml version="1.0" encoding="utf-8"?>
<!-- Generator: Adobe Illustrator 25.4.1, SVG Export Plug-In . SVG Version: 6.00 Build 0)  -->
<svg width="30" height="30" version="1.1" id="レイヤー_1" xmlns="http://www.w3.org/2000/svg" xmlns:xlink="http://www.w3.org/1999/xlink" x="0px"
	 y="0px" viewBox="0 0 680.31 680.31" style="enable-background:new 0 0 680.31 680.31;" xml:space="preserve">
<style type="text/css">
	.st0{fill-rule:evenodd;clip-rule:evenodd;fill:url(#SVGID_1_);}
</style>
<radialGradient id="SVGID_1_" cx="343.2207" cy="344.2207" r="288.659" gradientTransform="matrix(0.964 -0.2657 0.2126 0.7712 -60.8386 169.9543)" gradientUnits="userSpaceOnUse">
	<stop  offset="0.342" style="stop-color:#66BBE1"/>
	<stop  offset="1" style="stop-color:#2696D5"/>
</radialGradient>
<path class="st0" d="M343.22,55.56c-159.31,0-288.66,129.34-288.66,288.66s129.34,288.66,288.66,288.66
	c159.32,0,288.66-129.34,288.66-288.66S502.54,55.56,343.22,55.56L343.22,55.56z M343.22,86.32c142.34,0,257.9,115.56,257.9,257.9
	c0,142.34-115.56,257.9-257.9,257.9c-142.34,0-257.9-115.56-257.9-257.9C85.32,201.88,200.88,86.32,343.22,86.32L343.22,86.32z
	 M309.91,187.54l58.94-14.74c0,0-10.2,121.66-10.58,121.66c-0.38,0-32.49,5.29-32.49,5.29L309.91,187.54L309.91,187.54z
	 M490.91,300.08l-41.56-1.89l25.98,28.34l-17.95,41.56l44.4-18.42l44.87,42.03l-12.28-56.2l37.78-24.09l-45.34-6.14
	c0,0-12.28-55.73-12.28-55.26C514.53,250.49,490.91,300.08,490.91,300.08L490.91,300.08z M121.94,361.62
	c-25.39,34.24,1.77,64.35,1.77,64.35l63.76-30.11c0,0-13.58,33.06,0.59,66.71c60.27,143.15,207.81-43.1,207.81-43.1
	c13.58,57.27,90.33,63.76,90.33,63.76l36.01-64.35c0,0-33.06,8.27-80.88-41.92c-47.82-50.18,45.46-188.92,45.46-188.92l-61.99-22.43
	c0,0-7.08,53.72-34.24,138.74c-27.16,85.01-76.75,145.23-117.48,147c-40.73,1.77-34.83-68.48-34.83-68.48l60.22-23.03L297.87,302
	l-70.84,25.98l20.07-69.07l-73.21,25.98l2.36,56.08C176.25,340.96,161.05,347.47,121.94,361.62L121.94,361.62z"/>
</svg>
